<?xml version="1.0" encoding="utf-8"?>
<!-- Generator: Adobe Illustrator 19.2.1, SVG Export Plug-In . SVG Version: 6.00 Build 0)  -->
<svg version="1.1" xmlns="http://www.w3.org/2000/svg" xmlns:xlink="http://www.w3.org/1999/xlink" x="0px" y="0px"
	 viewBox="0 0 35.9 34.1" style="enable-background:new 0 0 35.9 34.1;" xml:space="preserve">
<style type="text/css">
	.st0{display:none;}
	.st1{fill:none;}
	.st2{font-family:'basictitlefont';}
	.st3{font-size:44px;}
</style>
<g id="Calque_1" class="st0">
	
		<image style="display:inline;overflow:visible;" width="488" height="472" xlink:href="../../../Capture d’écran 2016-06-30 à 16.52.57.png"  transform="matrix(3.986719e-12 -8.879782e-02 8.879782e-02 3.986719e-12 -1.9563 39.4167)">
	</image>
</g>
<g id="logo">
	<g>
		<g>
			<path d="M2.3,32c-0.4-0.6-0.7-1.6-1-2.7C1.1,28.2,1,26.8,1,25.8c0.2,0,0.3,0,0.5,0c0,2,0.1,2.6,0.3,3.5c0.2,0.9,0.5,1.6,0.9,2.1
				c0.3,0.5,0.7,0.8,1.1,1c0.4,0.2,0.8,0.3,1.1,0.3c0.4,0,0.9-0.1,1.3-0.3c0.4-0.2,0.8-0.6,1.2-1.1c0.3-0.5,0.6-1.1,0.8-1.9
				c0.2-0.8,0.3-1.8,0.3-2.9c0-1.3-0.1-2.5-0.3-3.5c-0.2-1-0.5-1.9-0.9-2.6c-0.4-0.8-0.8-1.4-1.2-2c-0.5-0.6-0.9-1.2-1.4-1.8
				c-0.5-0.6-0.9-1.1-1.3-1.6c-0.4-0.5-0.9-1.2-1.3-1.8C1.5,11.5,1,9.8,1,7.9c0-0.1,0-0.3,0-0.7c0-0.4,0.2-0.8,0.2-1.3
				c0.1-0.5,0.2-1,0.3-1.6c0.1-0.6,0.4-1.1,0.7-1.6C2.9,1.4,3.8,0.8,5,0.8c1.2,0,2.1,0.6,2.7,1.8C8,3.1,8.2,3.7,8.3,4.4
				C8.4,5,8.5,5.6,8.5,6.2c0,0.6,0,1.3,0,1.7c0,0.4,0-0.1,0,0.9c-0.2,0-0.3,0-0.5,0c0-1,0-1.6,0-2.1c0-0.5-0.1-1.2-0.2-1.8
				C7.7,4.3,7.5,3.7,7.3,3.3C7.1,2.8,6.7,2.4,6.4,2.1C6,1.9,5.5,1.7,5,1.7c-1,0-1.8,0.5-2.4,1.5C2.4,3.7,2.2,4.2,2.1,4.7
				C2,5.2,1.9,5.7,1.9,6.2c-0.1,0.5-0.1,1-0.1,1.6c0,1,0.1,1.8,0.3,2.6c0.2,0.7,0.4,1.4,0.7,2.1c0.3,0.6,0.7,1.2,1.1,1.7
				c0.4,0.5,0.8,1.1,1.2,1.6c0.5,0.6,1,1.2,1.5,1.8C7,18.3,7.5,19,7.9,19.8c0.9,1.9,1.3,4.1,1.3,6.6c0,2.4-0.5,4.2-1.4,5.5
				C7.1,33,6.1,33.5,5,33.5c-0.4,0-0.8-0.1-1.3-0.3C3.2,33.1,2.7,32.7,2.3,32z"/>
		</g>
	</g>
	<rect x="7.7" y="1.2" class="st1" width="32.2" height="40.3"/>
	<text transform="matrix(1 0 0 1 7.7292 33.4176)" class="st2 st3">b</text>
	<g id="Calque_3">
	</g>
	<g>
		<path d="M28.7,1.7c0.1,0.1,0.1,0.2,0.2,0.3l0,0l0,0c0.3,0.5,0.5,1.2,0.6,2.2c0.1,2.7-3.9,5.1-3.8,9c0,1,0.2,2.3,1.8,4.2
			c-1.6,1.8-1.8,3.2-1.8,4.2c-0.2,3.8,3.9,6.2,3.8,9c0,0.9-0.3,1.7-0.6,2.2l0,0l0,0c-0.1,0.1-0.1,0.2-0.2,0.3
			c-0.5,0.9,0.4,0.6,0.6,0.5c2.1-0.8,5.6-2.9,5.8-7.9c0.2-4-1.4-6.8-3.2-8.2C33.6,15.8,35.2,13,35,9c-0.2-5-3.6-7.1-5.8-7.9
			C29.1,1.1,28.2,0.8,28.7,1.7z"/>
	</g>
</g>
</svg>
